<?xml version="1.0" encoding="UTF-8"?>
<svg xmlns="http://www.w3.org/2000/svg" width="200" height="170">
<path fill="#c5c5c5"
d="m 10,40 60,-30 120,0 -60,30 -48,0 0,-3 42,0 48,-24 -96,0 -48,24 36,0 0,3 z m 18,105 0,-6 36,-18 12,0 z m 48,-24 6,-3 36,0 0,3 z m -54,27 6,-3 90,0 0,3 z m 114,-27 0,-3 36,0 0,3 z m 0,24 0,-6 36,-18 12,0 z"
/>
<path fill="#969696"
d="M 28,37 76,13 76,25 52,37 z m -6,15 6,0 0,93 -6,3 z m 54,-27 6,0 0,93 -6,3 z m -48,120 48,-24 0,12 -24,12 z m 102,-105 60,-30 0,120 -60,30 z m 6,9 0,96 48,-24 0,-96 z"
/>
<path fill="#595959"
d="m 10,40 54,0 0,-9 12,-6 0,96 -12,0 0,-69 -42,0 0,96 96,0 0,-15 -42,0 0,-12 42,0 0,-69 -36,0 0,-12 48,0 0,120 -120,0 z m 66,-27 96,0 -24,12 -72,0 z m 96,18 12,-6 0,96 -12,0 z m -36,90 36,0 -24,12 -12,0 z"
/>
</svg>